<?xml version="1.0" encoding="utf-8"?>
<!-- Generator: Adobe Illustrator 26.2.1, SVG Export Plug-In . SVG Version: 6.00 Build 0)  -->
<svg version="1.1" xmlns="http://www.w3.org/2000/svg" xmlns:xlink="http://www.w3.org/1999/xlink" x="0px" y="0px"
	 viewBox="0 0 4800 3300" style="enable-background:new 0 0 4800 3300;" xml:space="preserve">
<style type="text/css">
	.st0{opacity:0.4;fill:url(#SVGID_1_);}
	.st1{fill:url(#SVGID_00000093894247935917292120000016665555838511572925_);}
	.st2{fill:url(#SVGID_00000106846250586034746200000004346958993028421289_);}
	.st3{fill:url(#SVGID_00000138531715518532437140000014947258200170857909_);}
	.st4{fill:url(#SVGID_00000077303393432968095170000009158438997543696532_);}
	.st5{fill:url(#SVGID_00000142860915345067416820000011856358565616547255_);}
	.st6{fill:url(#SVGID_00000039132711878638441490000008882744645796465284_);}
	.st7{fill:url(#SVGID_00000129184503749361552340000000312295571853529776_);}
	.st8{fill:url(#SVGID_00000003790854849267233980000008498701662332347020_);}
	.st9{fill:url(#SVGID_00000059270601863420014950000013436790759509374629_);}
	.st10{fill:url(#SVGID_00000112593114660719467270000014639334174543097535_);}
	.st11{fill:url(#SVGID_00000018201634893330492150000007550843327338893199_);}
	.st12{fill:url(#SVGID_00000031924064882912895680000015291394866871084684_);}
	.st13{fill:url(#SVGID_00000005252342554447280520000017266884830631362466_);}
	.st14{fill:url(#SVGID_00000005231288177797299230000017671248646313159587_);}
	.st15{fill:url(#SVGID_00000026846633779562475700000002860872374081589155_);}
	.st16{opacity:0.4;fill:url(#SVGID_00000042714669089315516310000015726965508569055653_);}
	.st17{fill:url(#SVGID_00000118398780976657326060000005604491442244589751_);}
	.st18{fill:url(#SVGID_00000016788329845630448430000000506257462987144600_);}
	.st19{fill:url(#SVGID_00000159457027323230404650000006288760117076116150_);}
	.st20{fill:url(#SVGID_00000049907616407105710880000012556607674697265583_);}
	.st21{fill:url(#SVGID_00000054980136508004728510000007436885934560688521_);}
	.st22{fill:url(#SVGID_00000176753717277967917170000016631349198251340674_);}
	.st23{fill:url(#SVGID_00000065038019730219902290000010924589846505854126_);}
	.st24{fill:url(#SVGID_00000045588207357828761210000010482795450798767522_);}
	.st25{fill:url(#SVGID_00000052075570852988279710000010577281092284550579_);}
	.st26{fill:url(#SVGID_00000046309500702361947390000013345771494971035561_);}
	.st27{fill:url(#SVGID_00000093170648371313750270000009710618702463305605_);}
	.st28{fill:#FFFFFF;}
	.st29{fill:url(#SVGID_00000116915014431212964710000015317148698587333555_);}
	.st30{fill:url(#SVGID_00000001638611271901533360000002960763503336312454_);}
	.st31{fill:url(#SVGID_00000112634965581822796370000008717190527008191113_);}
	.st32{fill:url(#SVGID_00000030479533747650597290000006323239101208720819_);}
	.st33{fill:url(#SVGID_00000023251888488261062390000015314328555091805371_);}
	.st34{fill:url(#SVGID_00000115508711053754079300000017977953591211996545_);}
	.st35{fill:url(#SVGID_00000037690243454625333890000002290210272277432710_);}
	.st36{fill:url(#SVGID_00000011012081446957406130000008332175857342215831_);}
	.st37{fill:url(#SVGID_00000047039787863954586810000006088909523970560143_);}
	.st38{fill:url(#SVGID_00000174583108402160932680000005380912845325764238_);}
	.st39{fill:url(#SVGID_00000139282553228920487040000002431820938953286833_);}
	.st40{fill:url(#SVGID_00000053511679992774582130000006390516399757735353_);}
	.st41{fill:url(#SVGID_00000166650504735510071300000008014792353888461730_);}
	.st42{fill:#EFBC90;}
	.st43{fill:url(#SVGID_00000155112004626484641320000008930801454385695675_);}
	.st44{fill:url(#SVGID_00000108999361753504765810000008281504132666174337_);}
	.st45{fill:url(#SVGID_00000026144221067257429060000011754648197940589983_);}
	.st46{fill:url(#SVGID_00000022561452417407242710000010668510502045566142_);}
	.st47{fill:url(#SVGID_00000059303321812100951850000011019734689162589336_);}
	.st48{fill:url(#SVGID_00000112598138319315184320000005177278950466839194_);}
	.st49{fill:url(#SVGID_00000065062915116575389590000012503606772574793122_);}
	.st50{fill:#C7B299;}
	.st51{fill:#03053E;}
	.st52{fill:url(#SVGID_00000093145558037565956400000010301308441299848375_);}
	.st53{fill:url(#SVGID_00000168797928412789480140000004383109989696473742_);}
	.st54{fill:#F4CAAB;}
	.st55{fill:url(#SVGID_00000182487551139199555750000016530732347808378557_);}
	.st56{fill:url(#SVGID_00000133492860516930481990000018351715510664971910_);}
	.st57{fill:#76D3F4;}
	.st58{fill:url(#SVGID_00000095341003791311940540000009415032661634301886_);}
	.st59{fill:url(#SVGID_00000028326205403547455080000003403017125191636893_);}
	.st60{fill:url(#SVGID_00000080896625456036970150000013670880008294842774_);}
	.st61{fill:url(#SVGID_00000162330937079621450710000000590679094169104815_);}
	.st62{fill:url(#SVGID_00000170259649126322311000000007945537581588563130_);}
	.st63{fill:#DBC6AF;}
	.st64{fill:url(#SVGID_00000109748205228636379790000008840124660968076417_);}
	.st65{fill:url(#SVGID_00000128480338448348843710000005102463273991177643_);}
	.st66{fill:url(#SVGID_00000163760199614982574310000017643285669511314353_);}
</style>
<g id="Ñëîé_2">
</g>
<g id="Ñëîé_1">
	<g>
		<g>
			<g>
				<linearGradient id="SVGID_1_" gradientUnits="userSpaceOnUse" x1="3330.0742" y1="624.1597" x2="3875.9976" y2="624.1597">
					<stop  offset="0" style="stop-color:#FFE2E4"/>
					<stop  offset="1" style="stop-color:#A4B8EA"/>
				</linearGradient>
				<circle class="st0" cx="3603" cy="624.2" r="273"/>
			</g>
		</g>
		<g>
			<g>
				
					<linearGradient id="SVGID_00000105422494111771160180000003465736196093646242_" gradientUnits="userSpaceOnUse" x1="3596.0916" y1="398.7985" x2="3609.9802" y2="398.7985">
					<stop  offset="0" style="stop-color:#435AC2"/>
					<stop  offset="1" style="stop-color:#0F24A4"/>
				</linearGradient>
				<path style="fill:url(#SVGID_00000105422494111771160180000003465736196093646242_);" d="M3609.4,423.2h-12.6
					c-0.3,0-0.6-0.3-0.6-0.6V375c0-0.3,0.3-0.6,0.6-0.6h12.6c0.3,0,0.6,0.3,0.6,0.6v47.5C3610,422.9,3609.7,423.2,3609.4,423.2z"/>
			</g>
		</g>
		<g>
			<g>
				
					<linearGradient id="SVGID_00000060710547025638341020000003881871222071803290_" gradientUnits="userSpaceOnUse" x1="3471.2783" y1="558.1523" x2="3602.7786" y2="558.1523">
					<stop  offset="0" style="stop-color:#435AC2"/>
					<stop  offset="1" style="stop-color:#0F24A4"/>
				</linearGradient>
				<path style="fill:url(#SVGID_00000060710547025638341020000003881871222071803290_);" d="M3602.6,614.8l-8.9,8.9
					c-0.2,0.2-0.6,0.2-0.9,0l-121.3-121.3c-0.2-0.2-0.2-0.6,0-0.9l8.9-8.9c0.2-0.2,0.6-0.2,0.9,0l121.3,121.3
					C3602.8,614.1,3602.8,614.5,3602.6,614.8z"/>
			</g>
		</g>
		<g>
			<g>
				
					<linearGradient id="SVGID_00000072977677072671854240000010469206388288142502_" gradientUnits="userSpaceOnUse" x1="3606.4507" y1="600.2253" x2="3738.6421" y2="600.2253">
					<stop  offset="0" style="stop-color:#435AC2"/>
					<stop  offset="1" style="stop-color:#0F24A4"/>
				</linearGradient>
				<path style="fill:url(#SVGID_00000072977677072671854240000010469206388288142502_);" d="M3612.7,630.9l-6.2-18
					c-0.2-0.5,0.1-1,0.6-1.2l124.1-42.7c0.5-0.2,1,0.1,1.2,0.6l6.2,18c0.2,0.5-0.1,1-0.6,1.2l-124.1,42.7
					C3613.4,631.7,3612.9,631.4,3612.7,630.9z"/>
			</g>
		</g>
		<g>
			<g>
				
					<linearGradient id="SVGID_00000175315259204983703230000006026029209883048893_" gradientUnits="userSpaceOnUse" x1="3578.8716" y1="624.1597" x2="3627.2002" y2="624.1597">
					<stop  offset="0" style="stop-color:#435AC2"/>
					<stop  offset="1" style="stop-color:#0F24A4"/>
				</linearGradient>
				<circle style="fill:url(#SVGID_00000175315259204983703230000006026029209883048893_);" cx="3603" cy="624.2" r="24.2"/>
			</g>
		</g>
		<g>
			<g>
				
					<linearGradient id="SVGID_00000102529417303729308820000003170680944706580407_" gradientUnits="userSpaceOnUse" x1="3472.3721" y1="428.9911" x2="3508.3384" y2="428.9911">
					<stop  offset="0" style="stop-color:#435AC2"/>
					<stop  offset="1" style="stop-color:#0F24A4"/>
				</linearGradient>
				<path style="fill:url(#SVGID_00000102529417303729308820000003170680944706580407_);" d="M3508,447l-11,6.3
					c-0.3,0.2-0.7,0.1-0.8-0.2l-23.8-41.2c-0.2-0.3-0.1-0.7,0.2-0.8l11-6.3c0.3-0.2,0.7-0.1,0.8,0.2l23.8,41.2
					C3508.4,446.4,3508.3,446.8,3508,447z"/>
			</g>
		</g>
		<g>
			<g>
				
					<linearGradient id="SVGID_00000183240988340746077490000013823900426904167814_" gradientUnits="userSpaceOnUse" x1="3383.4976" y1="511.4791" x2="3432.2371" y2="511.4791">
					<stop  offset="0" style="stop-color:#435AC2"/>
					<stop  offset="1" style="stop-color:#0F24A4"/>
				</linearGradient>
				<path style="fill:url(#SVGID_00000183240988340746077490000013823900426904167814_);" d="M3432.2,518.2l-6.3,11
					c-0.2,0.3-0.6,0.4-0.8,0.2l-41.2-23.8c-0.3-0.2-0.4-0.6-0.2-0.8l6.3-11c0.2-0.3,0.6-0.4,0.8-0.2l41.2,23.8
					C3432.2,517.5,3432.3,517.9,3432.2,518.2z"/>
			</g>
		</g>
		<g>
			<g>
				
					<linearGradient id="SVGID_00000171698853470538047480000018378988654330560166_" gradientUnits="userSpaceOnUse" x1="3353.2817" y1="624.1597" x2="3402.0674" y2="624.1597">
					<stop  offset="0" style="stop-color:#435AC2"/>
					<stop  offset="1" style="stop-color:#0F24A4"/>
				</linearGradient>
				<path style="fill:url(#SVGID_00000171698853470538047480000018378988654330560166_);" d="M3402.1,617.8v12.6
					c0,0.3-0.3,0.6-0.6,0.6h-47.5c-0.3,0-0.6-0.3-0.6-0.6v-12.6c0-0.3,0.3-0.6,0.6-0.6h47.5C3401.8,617.2,3402.1,617.5,3402.1,617.8
					z"/>
			</g>
		</g>
		<g>
			<g>
				
					<linearGradient id="SVGID_00000130643908660686743350000013357844563002398893_" gradientUnits="userSpaceOnUse" x1="3383.4976" y1="736.8404" x2="3432.2371" y2="736.8404">
					<stop  offset="0" style="stop-color:#435AC2"/>
					<stop  offset="1" style="stop-color:#0F24A4"/>
				</linearGradient>
				<path style="fill:url(#SVGID_00000130643908660686743350000013357844563002398893_);" d="M3425.8,719.2l6.3,11
					c0.2,0.3,0.1,0.7-0.2,0.8l-41.2,23.8c-0.3,0.2-0.7,0.1-0.8-0.2l-6.3-11c-0.2-0.3-0.1-0.7,0.2-0.8l41.2-23.8
					C3425.3,718.8,3425.7,718.9,3425.8,719.2z"/>
			</g>
		</g>
		<g>
			<g>
				
					<linearGradient id="SVGID_00000174576759124807879490000007395741397185253286_" gradientUnits="userSpaceOnUse" x1="3472.3721" y1="819.3284" x2="3508.3384" y2="819.3284">
					<stop  offset="0" style="stop-color:#435AC2"/>
					<stop  offset="1" style="stop-color:#0F24A4"/>
				</linearGradient>
				<path style="fill:url(#SVGID_00000174576759124807879490000007395741397185253286_);" d="M3497.1,795l11,6.3
					c0.3,0.2,0.4,0.6,0.2,0.8l-23.8,41.2c-0.2,0.3-0.6,0.4-0.8,0.2l-11-6.3c-0.3-0.2-0.4-0.6-0.2-0.8l23.8-41.2
					C3496.4,795,3496.8,794.9,3497.1,795z"/>
			</g>
		</g>
		<g>
			<g>
				
					<linearGradient id="SVGID_00000056396290935550582250000017949828921135639996_" gradientUnits="userSpaceOnUse" x1="3596.0916" y1="849.5211" x2="3609.9802" y2="849.5211">
					<stop  offset="0" style="stop-color:#435AC2"/>
					<stop  offset="1" style="stop-color:#0F24A4"/>
				</linearGradient>
				<path style="fill:url(#SVGID_00000056396290935550582250000017949828921135639996_);" d="M3596.7,825.1h12.6
					c0.3,0,0.6,0.3,0.6,0.6v47.5c0,0.3-0.3,0.6-0.6,0.6h-12.6c-0.3,0-0.6-0.3-0.6-0.6v-47.5C3596.1,825.4,3596.4,825.1,3596.7,825.1
					z"/>
			</g>
		</g>
		<g>
			<g>
				
					<linearGradient id="SVGID_00000085229799294203023390000005086319572310705029_" gradientUnits="userSpaceOnUse" x1="3697.7334" y1="819.3284" x2="3733.6997" y2="819.3284">
					<stop  offset="0" style="stop-color:#435AC2"/>
					<stop  offset="1" style="stop-color:#0F24A4"/>
				</linearGradient>
				<path style="fill:url(#SVGID_00000085229799294203023390000005086319572310705029_);" d="M3698,801.4l11-6.3
					c0.3-0.2,0.7-0.1,0.8,0.2l23.8,41.2c0.2,0.3,0.1,0.7-0.2,0.8l-11,6.3c-0.3,0.2-0.7,0.1-0.8-0.2l-23.8-41.2
					C3697.6,801.9,3697.7,801.5,3698,801.4z"/>
			</g>
		</g>
		<g>
			<g>
				
					<linearGradient id="SVGID_00000034085749612124180530000016188707266404864650_" gradientUnits="userSpaceOnUse" x1="3773.8347" y1="736.8404" x2="3822.5742" y2="736.8404">
					<stop  offset="0" style="stop-color:#435AC2"/>
					<stop  offset="1" style="stop-color:#0F24A4"/>
				</linearGradient>
				<path style="fill:url(#SVGID_00000034085749612124180530000016188707266404864650_);" d="M3773.9,730.1l6.3-11
					c0.2-0.3,0.6-0.4,0.8-0.2l41.2,23.8c0.3,0.2,0.4,0.6,0.2,0.8l-6.3,11c-0.2,0.3-0.6,0.4-0.8,0.2l-41.2-23.8
					C3773.8,730.8,3773.7,730.4,3773.9,730.1z"/>
			</g>
		</g>
		<g>
			<g>
				
					<linearGradient id="SVGID_00000142890529445406421260000006720956465518002570_" gradientUnits="userSpaceOnUse" x1="3804.0044" y1="624.1597" x2="3852.79" y2="624.1597">
					<stop  offset="0" style="stop-color:#435AC2"/>
					<stop  offset="1" style="stop-color:#0F24A4"/>
				</linearGradient>
				<path style="fill:url(#SVGID_00000142890529445406421260000006720956465518002570_);" d="M3804,630.5v-12.6
					c0-0.3,0.3-0.6,0.6-0.6h47.5c0.3,0,0.6,0.3,0.6,0.6v12.6c0,0.3-0.3,0.6-0.6,0.6h-47.5C3804.3,631.1,3804,630.8,3804,630.5z"/>
			</g>
		</g>
		<g>
			<g>
				
					<linearGradient id="SVGID_00000008138275189585079740000011611890946692380561_" gradientUnits="userSpaceOnUse" x1="3773.8347" y1="511.4791" x2="3822.5742" y2="511.4791">
					<stop  offset="0" style="stop-color:#435AC2"/>
					<stop  offset="1" style="stop-color:#0F24A4"/>
				</linearGradient>
				<path style="fill:url(#SVGID_00000008138275189585079740000011611890946692380561_);" d="M3780.2,529.2l-6.3-11
					c-0.2-0.3-0.1-0.7,0.2-0.8l41.2-23.8c0.3-0.2,0.7-0.1,0.8,0.2l6.3,11c0.2,0.3,0.1,0.7-0.2,0.8l-41.2,23.8
					C3780.8,529.6,3780.4,529.4,3780.2,529.2z"/>
			</g>
		</g>
		<g>
			<g>
				
					<linearGradient id="SVGID_00000067942553151747564060000006458621109024492947_" gradientUnits="userSpaceOnUse" x1="3697.7334" y1="428.9911" x2="3733.6997" y2="428.9911">
					<stop  offset="0" style="stop-color:#435AC2"/>
					<stop  offset="1" style="stop-color:#0F24A4"/>
				</linearGradient>
				<path style="fill:url(#SVGID_00000067942553151747564060000006458621109024492947_);" d="M3709,453.3l-11-6.3
					c-0.3-0.2-0.4-0.6-0.2-0.8l23.8-41.2c0.2-0.3,0.6-0.4,0.8-0.2l11,6.3c0.3,0.2,0.4,0.6,0.2,0.8l-23.8,41.2
					C3709.7,453.3,3709.3,453.4,3709,453.3z"/>
			</g>
		</g>
	</g>
	
		<linearGradient id="SVGID_00000073684971864735529670000010520539018889694911_" gradientUnits="userSpaceOnUse" x1="414.7553" y1="1682.408" x2="4300.48" y2="1682.408">
		<stop  offset="0" style="stop-color:#FFE2E4"/>
		<stop  offset="1" style="stop-color:#A4B8EA"/>
	</linearGradient>
	<path style="opacity:0.4;fill:url(#SVGID_00000073684971864735529670000010520539018889694911_);" d="M3233.2,1127.4
		c-1,0-2,0-2.9,0c-160.5,0.4-309.5-88.3-388.9-234.4c-218.3-401.7-645.1-674.6-1135.8-674.6c-712.9,0-1290.8,575.8-1290.8,1286.1
		s577.9,1286.1,1290.8,1286.1c122.6,0,241.2-17,353.5-48.8c146.8-41.6,303.4-2,415.7,105.3c193.4,184.8,461.8,299.3,758.4,299.3
		c589.4,0,1067.2-451.9,1067.2-1009.5S3822.7,1127.4,3233.2,1127.4z"/>
	
		<linearGradient id="SVGID_00000111904086816732284490000000255524713681625262_" gradientUnits="userSpaceOnUse" x1="2247.7156" y1="1536.7935" x2="3030.8083" y2="858.1128" gradientTransform="matrix(0.9942 -0.1076 0.1076 0.9942 -117.8753 553.7751)">
		<stop  offset="0.4566" style="stop-color:#A3B7E9"/>
		<stop  offset="1" style="stop-color:#B8C7EE"/>
	</linearGradient>
	<path style="fill:url(#SVGID_00000111904086816732284490000000255524713681625262_);" d="M2141.5,2221.6
		c0,0,207.4-712.8,477.3-1117.6s560.3-527.3,560.3-527.3s-136.2,180.6-221.4,424.8s-105.3,505.3-239.9,741.6
		C2514.3,2100.5,2141.5,2221.6,2141.5,2221.6z"/>
	
		<linearGradient id="SVGID_00000059283500078952070070000012798260030145323424_" gradientUnits="userSpaceOnUse" x1="348.1736" y1="1467.3406" x2="1394.7302" y2="1670.598">
		<stop  offset="0" style="stop-color:#FFE2E4"/>
		<stop  offset="1" style="stop-color:#A4B8EA"/>
	</linearGradient>
	<path style="fill:url(#SVGID_00000059283500078952070070000012798260030145323424_);" d="M358.6,1556.5
		c-89.3,356,639.2,553.1,635.9,623.2c-3.2,70.1-377.7,10.4-308.3,203c64.3,178.4,648.3,267.5,1083.5,81.6
		c12.6-5.4,334.3-523.5,122-840.4c-212.3-316.9-297,212.9-400,195.7c-103-17.3,145.5-662.9-60.8-809.7
		c-213.7-152.2-297.1,314.3-397.1,238.9c-94.7-71.4-123.1-739-393.7-661.8c-9.8,2.8-19.9,6.6-30.4,11.4l-0.1,0l0,0
		c-5.5,2.5-11.2,5.4-16.9,8.5C278,780.2,843,1501.5,708,1523.9C573,1546.4,403.9,1376.1,358.6,1556.5z"/>
	
		<linearGradient id="SVGID_00000114764383680087118680000010536111666815109773_" gradientUnits="userSpaceOnUse" x1="821.7504" y1="1145.4503" x2="1316.068" y2="2293.6675" gradientTransform="matrix(0.9999 -1.080000e-02 1.080000e-02 0.9999 -42.5541 55.672)">
		<stop  offset="0.4566" style="stop-color:#A3B7E9"/>
		<stop  offset="1" style="stop-color:#B8C7EE"/>
	</linearGradient>
	<path style="fill:url(#SVGID_00000114764383680087118680000010536111666815109773_);" d="M1433.4,2566.7c0,0-137.2-610.4-312.5-964
		s-362.1-470.2-362.1-470.2s88.3,158.5,144.4,368.3c56.1,209.8,70.6,430.8,158.2,636.2C1193.9,2447.6,1433.4,2566.7,1433.4,2566.7z"
		/>
	
		<linearGradient id="SVGID_00000051380836261710006490000004748487145754025406_" gradientUnits="userSpaceOnUse" x1="4071.3083" y1="4110.1777" x2="4385.9248" y2="4110.1777" gradientTransform="matrix(0.6997 0.5689 -0.6341 0.7799 2277.1006 -4466.9497)">
		<stop  offset="0" style="stop-color:#FFC1C2"/>
		<stop  offset="1" style="stop-color:#FE958F"/>
	</linearGradient>
	<path style="fill:url(#SVGID_00000051380836261710006490000004748487145754025406_);" d="M2835.8,685.8
		c0,0-174.2,155.3-260.7,346.2c-86.5,190.8-80.6,431.8-156.9,566.5c0,0,147.8-120.4,196.3-231.2c48.5-110.8,33-244.9,55.7-347.4
		C2690,930.8,2754.5,802.3,2835.8,685.8z"/>
	
		<linearGradient id="SVGID_00000143575434315088259670000013588798346700881564_" gradientUnits="userSpaceOnUse" x1="695.2697" y1="1904.5813" x2="1564.5157" y2="2388.938">
		<stop  offset="0" style="stop-color:#FFE2E4"/>
		<stop  offset="1" style="stop-color:#A4B8EA"/>
	</linearGradient>
	<path style="fill:url(#SVGID_00000143575434315088259670000013588798346700881564_);" d="M1330.6,2546.8
		c0,0-157.6-408.7-315.3-635.6s-299-288.5-299-288.5s77.4,100.7,137.8,240.2s93,291.1,174.7,424.3
		C1152.5,2488.9,1330.6,2546.8,1330.6,2546.8z"/>
	
		<linearGradient id="SVGID_00000088108939553245539570000006170912393450213527_" gradientUnits="userSpaceOnUse" x1="4470.8867" y1="1847.7042" x2="3955.2749" y2="2599.9895" gradientTransform="matrix(0.9045 0.4265 -0.4265 0.9045 1019.9129 -2120.4326)">
		<stop  offset="0.4566" style="stop-color:#A3B7E9"/>
		<stop  offset="1" style="stop-color:#B8C7EE"/>
	</linearGradient>
	<path style="fill:url(#SVGID_00000088108939553245539570000006170912393450213527_);" d="M3412.4,2477.6
		c79.1-9.3,221.8-48.5,273.8-123.5c48-69.2-14.9-160.6,20.2-228.2c35.1-67.6,239.7-110.4,295.8-188.4
		c66.5-92.6-84.2-175.9-13.5-239.2c70.7-63.4,309.1-129.8,330.5-208.4c21.4-78.6-73.7-80,12-224.1c72.5-122,169.6-282,85-353.9
		c-90.2-76.7-205.6,47.5-266.9,145.8c-79,126.6-151.3-13.4-238.6,43.6c-79,51.5-80,350.7-140.6,407.6c-60.6,57-172.5,7.8-257,107.5
		s27.1,264.5-17.3,340.1s-163,41.2-226.6,148.5C3205.2,2212.2,3412.4,2477.6,3412.4,2477.6z"/>
	
		<linearGradient id="SVGID_00000176035381524106156940000006705659255730036883_" gradientUnits="userSpaceOnUse" x1="3416.1538" y1="-540.2344" x2="2906.9778" y2="202.6613" gradientTransform="matrix(0.753 -0.658 0.658 0.753 178.3938 3406.355)">
		<stop  offset="0.4566" style="stop-color:#A3B7E9"/>
		<stop  offset="1" style="stop-color:#B8C7EE"/>
	</linearGradient>
	<path style="fill:url(#SVGID_00000176035381524106156940000006705659255730036883_);" d="M2976.8,1936.3
		c22.8-75.3,43.8-219.9-3.5-296.6c-43.6-70.8-151.2-50-198.5-108.5c-47.3-58.5-5.1-260.6-53.5-342.2
		c-57.5-96.8-192.4,6.7-221.8-82.4c-29.4-89,4.8-331-57.9-381.4c-62.6-50.4-101.6,35-198-99.5c-81.7-113.9-188.1-265-286.6-216.9
		c-105.1,51.3-38.3,204.8,26.3,299.2c83.3,121.6-72,131.6-55,233.2c15.4,91.8,285.7,211.1,313.2,288.5s-61.2,159.2-4.4,275.1
		c56.8,115.9,250.1,80.1,300.9,150.2s-27.2,163.8,44.7,263.8C2654.7,2018.8,2976.8,1936.3,2976.8,1936.3z"/>
	
		<linearGradient id="SVGID_00000077312739476634069900000000582117996871936929_" gradientUnits="userSpaceOnUse" x1="3554.3738" y1="2296.5352" x2="4339.2524" y2="2092.2065">
		<stop  offset="0" style="stop-color:#FFE2E4"/>
		<stop  offset="1" style="stop-color:#A4B8EA"/>
	</linearGradient>
	<path style="fill:url(#SVGID_00000077312739476634069900000000582117996871936929_);" d="M4044.8,2278.2
		c-7,172.4-361.8,164.5-369.7,196.6s169,54.9,112.1,132.5c-52.7,71.9-328,34.5-499.6-107.2c-5-4.1-81.2-280.6,56.7-395.3
		c137.9-114.7,105.7,135.5,154.4,141.4c48.7,5.9,22.5-318.4,135-357.2c116.6-40.2,92.2,181.3,147.4,160.6
		c52.2-19.6,153.8-317,265.6-246.2c4.1,2.6,8.1,5.6,12.2,9.2l0,0l0,0c2.2,1.9,4.3,3.9,6.5,6.1c119,120-231.7,370.3-173.8,398.4
		C3949.4,2245.2,4048.4,2190.9,4044.8,2278.2z"/>
	<g>
		
			<linearGradient id="SVGID_00000114068141740286113700000007503928504532030113_" gradientUnits="userSpaceOnUse" x1="1170.344" y1="1799.554" x2="3566.99" y2="1799.554">
			<stop  offset="0" style="stop-color:#7A8FD8"/>
			<stop  offset="1" style="stop-color:#435AC2"/>
		</linearGradient>
		<path style="fill:url(#SVGID_00000114068141740286113700000007503928504532030113_);" d="M3409.7,939.3h-2082
			c-86.9,0-157.3,70.4-157.3,157.3v1405.9c0,86.9,70.4,157.3,157.3,157.3h2082c86.9,0,157.3-70.4,157.3-157.3V1096.6
			C3567,1009.7,3496.6,939.3,3409.7,939.3z"/>
		
			<linearGradient id="SVGID_00000046313031254717873460000007380525684729593521_" gradientUnits="userSpaceOnUse" x1="1256.1392" y1="1805.5293" x2="4623.2002" y2="1805.5293">
			<stop  offset="0" style="stop-color:#FFE2E4"/>
			<stop  offset="1" style="stop-color:#A4B8EA"/>
		</linearGradient>
		<path style="fill:url(#SVGID_00000046313031254717873460000007380525684729593521_);" d="M3471,1163.6v1283.9
			c0,11.4-1.3,22.5-3.9,33.1c-15,63.4-72.4,110.6-140.9,110.6H1411.1c-79.9,0-144.7-64.3-144.7-143.7V1163.6
			c0-79.4,64.8-143.7,144.7-143.7h1915.1C3406.2,1019.9,3471,1084.2,3471,1163.6z"/>
		
			<linearGradient id="SVGID_00000039095496337060818450000006045437959742519214_" gradientUnits="userSpaceOnUse" x1="898.1124" y1="2556.8738" x2="3839.2214" y2="2556.8738">
			<stop  offset="0" style="stop-color:#7A8FD8"/>
			<stop  offset="1" style="stop-color:#435AC2"/>
		</linearGradient>
		<path style="fill:url(#SVGID_00000039095496337060818450000006045437959742519214_);" d="M898.1,2453.9v48.5
			c0,86.9,86.4,157.3,193.1,157.3h2555c106.6,0,193.1-70.4,193.1-157.3v-48.5H898.1z"/>
	</g>
	<path class="st28" d="M3030.8,1082.4H1786c-26.8,0-48.6,31.1-48.6,69.4v1170.6c0,38.3,21.8,69.4,48.6,69.4h1244.9
		c26.8,0,48.6-31.1,48.6-69.4V1151.8C3079.4,1113.5,3057.7,1082.4,3030.8,1082.4z"/>
	
		<linearGradient id="SVGID_00000114054481237955887110000003357363992342455987_" gradientUnits="userSpaceOnUse" x1="1876.1392" y1="1912.9839" x2="2944.677" y2="1912.9839">
		<stop  offset="0" style="stop-color:#FFE2E4"/>
		<stop  offset="1" style="stop-color:#A4B8EA"/>
	</linearGradient>
	
		<rect x="1871.9" y="1860.5" style="fill:url(#SVGID_00000114054481237955887110000003357363992342455987_);" width="114.7" height="105"/>
	
		<linearGradient id="SVGID_00000016054430590157696690000007650861159739396024_" gradientUnits="userSpaceOnUse" x1="1876.1389" y1="1604.7267" x2="2944.6768" y2="1604.7267">
		<stop  offset="0" style="stop-color:#FFE2E4"/>
		<stop  offset="1" style="stop-color:#A4B8EA"/>
	</linearGradient>
	
		<rect x="2045.3" y="1588.7" style="fill:url(#SVGID_00000016054430590157696690000007650861159739396024_);" width="904.8" height="32.1"/>
	
		<linearGradient id="SVGID_00000032642874533850753370000000027092741085905318_" gradientUnits="userSpaceOnUse" x1="1876.1389" y1="1758.8552" x2="2944.6768" y2="1758.8552">
		<stop  offset="0" style="stop-color:#FFE2E4"/>
		<stop  offset="1" style="stop-color:#A4B8EA"/>
	</linearGradient>
	
		<rect x="2045.3" y="1742.8" style="fill:url(#SVGID_00000032642874533850753370000000027092741085905318_);" width="904.8" height="32.1"/>
	
		<linearGradient id="SVGID_00000135660353095095281640000018105636370757616799_" gradientUnits="userSpaceOnUse" x1="1876.1389" y1="1912.984" x2="2944.6768" y2="1912.984">
		<stop  offset="0" style="stop-color:#FFE2E4"/>
		<stop  offset="1" style="stop-color:#A4B8EA"/>
	</linearGradient>
	
		<rect x="2045.3" y="1896.9" style="fill:url(#SVGID_00000135660353095095281640000018105636370757616799_);" width="904.8" height="32.1"/>
	
		<linearGradient id="SVGID_00000094611666684878257720000013891104946161556413_" gradientUnits="userSpaceOnUse" x1="1876.1389" y1="2067.1125" x2="2944.6768" y2="2067.1125">
		<stop  offset="0" style="stop-color:#FFE2E4"/>
		<stop  offset="1" style="stop-color:#A4B8EA"/>
	</linearGradient>
	
		<rect x="2045.3" y="2051.1" style="fill:url(#SVGID_00000094611666684878257720000013891104946161556413_);" width="904.8" height="32.1"/>
	
		<linearGradient id="SVGID_00000136401164500827595050000005120324362212783505_" gradientUnits="userSpaceOnUse" x1="1876.1389" y1="2221.2412" x2="2944.6768" y2="2221.2412">
		<stop  offset="0" style="stop-color:#FFE2E4"/>
		<stop  offset="1" style="stop-color:#A4B8EA"/>
	</linearGradient>
	
		<rect x="2045.3" y="2205.2" style="fill:url(#SVGID_00000136401164500827595050000005120324362212783505_);" width="904.8" height="32.1"/>
	
		<linearGradient id="SVGID_00000005950305407693047550000013084359841820533640_" gradientUnits="userSpaceOnUse" x1="1876.1392" y1="2067.1125" x2="2944.677" y2="2067.1125">
		<stop  offset="0" style="stop-color:#FFE2E4"/>
		<stop  offset="1" style="stop-color:#A4B8EA"/>
	</linearGradient>
	
		<rect x="1871.9" y="2014.6" style="fill:url(#SVGID_00000005950305407693047550000013084359841820533640_);" width="114.7" height="105"/>
	
		<linearGradient id="SVGID_00000137825483971261954790000000823407065116627901_" gradientUnits="userSpaceOnUse" x1="1876.1392" y1="2221.2412" x2="2944.677" y2="2221.2412">
		<stop  offset="0" style="stop-color:#FFE2E4"/>
		<stop  offset="1" style="stop-color:#A4B8EA"/>
	</linearGradient>
	
		<rect x="1871.9" y="2168.7" style="fill:url(#SVGID_00000137825483971261954790000000823407065116627901_);" width="114.7" height="105"/>
	
		<linearGradient id="SVGID_00000127039021941358801200000003816200716150097041_" gradientUnits="userSpaceOnUse" x1="1876.1392" y1="1604.7267" x2="2944.677" y2="1604.7267">
		<stop  offset="0" style="stop-color:#FFE2E4"/>
		<stop  offset="1" style="stop-color:#A4B8EA"/>
	</linearGradient>
	
		<rect x="1871.9" y="1552.2" style="fill:url(#SVGID_00000127039021941358801200000003816200716150097041_);" width="114.7" height="105"/>
	
		<linearGradient id="SVGID_00000019664228842260746880000017623182528257028000_" gradientUnits="userSpaceOnUse" x1="1876.1392" y1="1758.8553" x2="2944.677" y2="1758.8553">
		<stop  offset="0" style="stop-color:#FFE2E4"/>
		<stop  offset="1" style="stop-color:#A4B8EA"/>
	</linearGradient>
	
		<rect x="1871.9" y="1706.3" style="fill:url(#SVGID_00000019664228842260746880000017623182528257028000_);" width="114.7" height="105"/>
	
		<linearGradient id="SVGID_00000100361639107054569560000009313558303049826708_" gradientUnits="userSpaceOnUse" x1="1876.1389" y1="1450.598" x2="2944.6768" y2="1450.598">
		<stop  offset="0" style="stop-color:#FFE2E4"/>
		<stop  offset="1" style="stop-color:#A4B8EA"/>
	</linearGradient>
	
		<rect x="2045.3" y="1434.5" style="fill:url(#SVGID_00000100361639107054569560000009313558303049826708_);" width="904.8" height="32.1"/>
	
		<linearGradient id="SVGID_00000066508006408526427270000009959848232307877557_" gradientUnits="userSpaceOnUse" x1="1876.1392" y1="1450.598" x2="2944.677" y2="1450.598">
		<stop  offset="0" style="stop-color:#FFE2E4"/>
		<stop  offset="1" style="stop-color:#A4B8EA"/>
	</linearGradient>
	
		<rect x="1871.9" y="1398.1" style="fill:url(#SVGID_00000066508006408526427270000009959848232307877557_);" width="114.7" height="105"/>
	
		<linearGradient id="SVGID_00000127766055265152664890000009134556202542946744_" gradientUnits="userSpaceOnUse" x1="2016.1373" y1="2491.0095" x2="2721.1968" y2="2491.0095">
		<stop  offset="0" style="stop-color:#435AC2"/>
		<stop  offset="1" style="stop-color:#0F24A4"/>
	</linearGradient>
	<path style="fill:url(#SVGID_00000127766055265152664890000009134556202542946744_);" d="M2016.1,2453.9v17.5
		c0,31.3,20.7,56.7,46.3,56.7h612.5c25.6,0,46.3-25.4,46.3-56.7v-17.5H2016.1z"/>
	<g>
		<g>
			<path class="st42" d="M3506.2,1539.3l-72.4,220.3l21.2-13.5l-167.3-11.7l-15.2-1.1l-3,29.4l15.1,2l166.3,21.8
				c9.2,1.2,17.7-4.2,20.8-12.4l0.4-1l82.2-216.8l9.1-23.9l-49.3-17.4L3506.2,1539.3z"/>
			<path class="st42" d="M3181.9,1741.1c-0.4,10.5,21,24.4,51.8,28.7c28.4,4,48.5-6,49.8-16.5
				C3286.2,1729.8,3182.5,1725,3181.9,1741.1z"/>
			<path class="st42" d="M3227.8,1723.1c1.9-4.2,14.5-4.8,29.5,0.5c13.8,4.9,21,13.3,19.5,17.7
				C3273.4,1751.1,3224.9,1729.6,3227.8,1723.1z"/>
		</g>
		
			<linearGradient id="SVGID_00000083776639495260782950000007508434830849265032_" gradientUnits="userSpaceOnUse" x1="3360.9751" y1="1648.8052" x2="3498.2815" y2="1688.8079">
			<stop  offset="0" style="stop-color:#FFC1C2"/>
			<stop  offset="0.2503" style="stop-color:#FCA7A5"/>
			<stop  offset="0.5359" style="stop-color:#F98F8C"/>
			<stop  offset="0.7944" style="stop-color:#F8817C"/>
			<stop  offset="1" style="stop-color:#F77C77"/>
		</linearGradient>
		<path style="fill:url(#SVGID_00000083776639495260782950000007508434830849265032_);" d="M3353.6,1728.3l-6,93.2
			c0,0,104.9-6.2,138.9-47.5c47.8-57.9,110.1-222.7,57.7-247.7c-58.2-27.8-61.5,114.5-104.6,178.6
			C3421.1,1732.4,3353.6,1728.3,3353.6,1728.3z"/>
		<g>
			
				<linearGradient id="SVGID_00000037662693676950668690000011364049175737781168_" gradientUnits="userSpaceOnUse" x1="2625.1711" y1="2085.6013" x2="2691.7791" y2="2085.6013" gradientTransform="matrix(-0.6777 -0.7354 -0.7354 0.6777 6689.7847 2250.9773)">
				<stop  offset="0" style="stop-color:#7A8FD8"/>
				<stop  offset="1" style="stop-color:#435AC2"/>
			</linearGradient>
			<polygon style="fill:url(#SVGID_00000037662693676950668690000011364049175737781168_);" points="3028.1,2013.6 3045.1,2032 
				3701.2,1427.4 3684.2,1409 			"/>
			
				<linearGradient id="SVGID_00000077322615618563078580000017686623096090033812_" gradientUnits="userSpaceOnUse" x1="2685.6382" y1="2085.6006" x2="2746.0342" y2="2085.6006" gradientTransform="matrix(-0.6777 -0.7354 -0.7354 0.6777 6689.7847 2250.9773)">
				<stop  offset="0" style="stop-color:#435AC2"/>
				<stop  offset="1" style="stop-color:#0F24A4"/>
			</linearGradient>
			<polygon style="fill:url(#SVGID_00000077322615618563078580000017686623096090033812_);" points="2979.1,1960.4 2996.1,1978.8 
				3652.2,1374.2 3635.2,1355.8 			"/>
			
				<linearGradient id="SVGID_00000018201025438920102650000017800637116501337737_" gradientUnits="userSpaceOnUse" x1="2710.6401" y1="2085.6011" x2="2644.6313" y2="2085.6011" gradientTransform="matrix(-0.6777 -0.7354 -0.7354 0.6777 6689.7847 2250.9773)">
				<stop  offset="0.4566" style="stop-color:#A3B7E9"/>
				<stop  offset="1" style="stop-color:#B8C7EE"/>
			</linearGradient>
			<polygon style="fill:url(#SVGID_00000018201025438920102650000017800637116501337737_);" points="2996.1,1978.8 3028.1,2013.6 
				3684.2,1409 3652.2,1374.2 			"/>
			
				<linearGradient id="SVGID_00000033358469273824515260000012745919249682221225_" gradientUnits="userSpaceOnUse" x1="2655.1658" y1="2598.645" x2="2699.156" y2="2598.645" gradientTransform="matrix(-0.6777 -0.7354 -0.7354 0.6777 6689.7847 2250.9773)">
				<stop  offset="0" style="stop-color:#FFE2E4"/>
				<stop  offset="1" style="stop-color:#FFC1C2"/>
			</linearGradient>
			<polygon style="fill:url(#SVGID_00000033358469273824515260000012745919249682221225_);" points="2996.1,1978.8 3028.1,2013.6 
				2913.6,2087 			"/>
			
				<linearGradient id="SVGID_00000114772351412248929100000010223416683670899619_" gradientUnits="userSpaceOnUse" x1="2625.1802" y1="2598.8604" x2="2713.6406" y2="2598.8604" gradientTransform="matrix(-0.6777 -0.7354 -0.7354 0.6777 6689.7847 2250.9773)">
				<stop  offset="0" style="stop-color:#FFC1C2"/>
				<stop  offset="1" style="stop-color:#FE958F"/>
			</linearGradient>
			<polygon style="fill:url(#SVGID_00000114772351412248929100000010223416683670899619_);" points="3028.1,2013.6 3045.1,2032 
				2913.4,2087.4 2913.6,2087 			"/>
			
				<linearGradient id="SVGID_00000116225962598451003350000008573432629576198800_" gradientUnits="userSpaceOnUse" x1="2693.6479" y1="2598.9343" x2="2732.2095" y2="2598.9343" gradientTransform="matrix(-0.6777 -0.7354 -0.7354 0.6777 6689.7847 2250.9773)">
				<stop  offset="0" style="stop-color:#FE958F"/>
				<stop  offset="1" style="stop-color:#F77C77"/>
			</linearGradient>
			<polygon style="fill:url(#SVGID_00000116225962598451003350000008573432629576198800_);" points="2996.1,1978.8 2913.6,2087 
				2913.1,2087.3 2979.1,1960.4 			"/>
			<polygon class="st50" points="2913.4,2087.4 2913,2087.5 2913.1,2087.3 2913.6,2087 			"/>
			<polygon class="st51" points="2933,2049.2 2952.9,2070.8 2913.6,2087 			"/>
			
				<linearGradient id="SVGID_00000092417058688205057730000010598381969225686920_" gradientUnits="userSpaceOnUse" x1="2630.8269" y1="1628.6895" x2="2728.1226" y2="1628.6895" gradientTransform="matrix(-0.6777 -0.7354 -0.7354 0.6777 6689.7847 2250.9773)">
				<stop  offset="0" style="stop-color:#FFE2E4"/>
				<stop  offset="1" style="stop-color:#A4B8EA"/>
			</linearGradient>
			<polygon style="fill:url(#SVGID_00000092417058688205057730000010598381969225686920_);" points="3635.2,1355.8 3701.2,1427.4 
				3717.1,1412.7 3651.2,1341.1 			"/>
			
				<linearGradient id="SVGID_00000179615047931336043090000005700216735217511098_" gradientUnits="userSpaceOnUse" x1="1704.5798" y1="1362.1963" x2="1803.0245" y2="1362.1963" gradientTransform="matrix(-1 0 0 1 5454.2007 0)">
				<stop  offset="0" style="stop-color:#FFC1C2"/>
				<stop  offset="1" style="stop-color:#FE958F"/>
			</linearGradient>
			<path style="fill:url(#SVGID_00000179615047931336043090000005700216735217511098_);" d="M3678.3,1316.2c6.8-6.3,17.4-5.9,23.7,1
				l43.2,46.9c6.3,6.8,5.9,17.4-1,23.7l-27.1,25l-65.9-71.6L3678.3,1316.2z"/>
		</g>
		<path class="st51" d="M3484.4,1316.8c45.8-32.8,100.9-10.4,108.2,36.9c9.5,61.5-2.5,111,12.8,151.7
			c23.7,63.2,17.1,125.3,17.1,125.3c-62.4-85.1-127-49.9-162.6-135.4C3448.4,1467.9,3440.5,1348.2,3484.4,1316.8z"/>
		<polygon class="st42" points="3502.6,1523.9 3557.2,1523.9 3557.2,1419.4 3523.8,1419.4 		"/>
		<path class="st54" d="M3462.2,1366.5c-9.2,42.9-2.4,86.2,23.5,95.6c24.3,8.8,66.5-14.5,85.7-56.9c20.3-44.7,10.4-78-25.6-90.5
			C3507.7,1301.5,3472.4,1319.4,3462.2,1366.5z"/>
		<polygon class="st42" points="3389.8,2411.3 3426.5,2145.3 3465.2,1879.7 3472.2,1831.6 3573.4,1853.4 3560,1900.1 3485.8,2157.9 
			3412.9,2416.1 3409.6,2427.5 3388.2,2423 		"/>
		<path class="st42" d="M3611.8,1831.6l1.7,48.5l9.8,282.3l123.3,183.9l6.6,9.8l-17.1,13.5l-8-8.7l-157.6-170.6
			c-2.8-3.1-4.8-7-5.6-11.4l-0.7-4.1l-47.3-285.1l-7.9-47.9L3611.8,1831.6z"/>
		
			<linearGradient id="SVGID_00000114063819083285649710000000593690469954213007_" gradientUnits="userSpaceOnUse" x1="3403.3738" y1="2069.4902" x2="3523.0212" y2="2077.4187">
			<stop  offset="0" style="stop-color:#435AC2"/>
			<stop  offset="1" style="stop-color:#0F24A4"/>
		</linearGradient>
		<polygon style="fill:url(#SVGID_00000114063819083285649710000000593690469954213007_);" points="3593.2,1822.6 3449.9,1822.6 
			3388.1,2321.3 3471.5,2333.5 		"/>
		
			<linearGradient id="SVGID_00000055689430483932312110000014129504798207526031_" gradientUnits="userSpaceOnUse" x1="3522.7727" y1="2084.1021" x2="3667.6475" y2="2061.3979">
			<stop  offset="0" style="stop-color:#435AC2"/>
			<stop  offset="1" style="stop-color:#0F24A4"/>
		</linearGradient>
		<path style="fill:url(#SVGID_00000055689430483932312110000014129504798207526031_);" d="M3632.6,1822.6h-137.7
			c0,0,25.2,318.8,45.8,356.2c24.6,44.9,122.1,149.2,122.1,149.2l66.2-51.2c0,0-69.8-98.8-86.6-145.1
			C3625.6,2085.4,3632.6,1822.6,3632.6,1822.6z"/>
		<path class="st57" d="M3558.5,1515c0,0-29.5,25.8-58.9,8.6c0,0-10.1,107.6-23.3,151.5c-13.2,43.9-47.4,155.6-47.4,155.6l209.6,3.7
			C3644.3,1736.2,3607.2,1624.6,3558.5,1515z"/>
		<path class="st54" d="M3537.3,1585.8c13.7,25.6,27,52.4,39.1,79c6,13.4,11.8,26.8,17,40.3c5.2,13.5,10,27,13.2,40.2
			c0.8,3.3,1.5,6.4,2,9.6l1.6,10.6c0.9,7.2,1.8,14.4,2.6,21.7c1.5,14.6,2.7,29.3,3.6,44.1c1.9,29.6,3.2,59.4,3.9,89.1l0.4,14.3
			l27.8,0.2l0.5-14.3c1-30.2,1.4-60.3,1.2-90.5c-0.1-15.1-0.5-30.3-1.2-45.6c-0.3-7.6-0.8-15.3-1.4-23.1l-1.1-11.7
			c-0.5-4.2-1.2-8.5-1.9-12.5c-3.2-16.1-7.6-31.1-12.4-45.8c-4.9-14.7-10.2-29.1-15.7-43.3c-11.2-28.5-23.2-56.1-36.3-84l-10.2-21.8
			l-44,22.4L3537.3,1585.8z"/>
		
			<linearGradient id="SVGID_00000107555295915927084670000008953286128009292937_" gradientUnits="userSpaceOnUse" x1="3414.572" y1="1672.0607" x2="3654.5876" y2="1676.3853">
			<stop  offset="0" style="stop-color:#FFC1C2"/>
			<stop  offset="0.2503" style="stop-color:#FCA7A5"/>
			<stop  offset="0.5359" style="stop-color:#F98F8C"/>
			<stop  offset="0.7944" style="stop-color:#F8817C"/>
			<stop  offset="1" style="stop-color:#F77C77"/>
		</linearGradient>
		<path style="fill:url(#SVGID_00000107555295915927084670000008953286128009292937_);" d="M3565.9,1502.5
			c0,0,102.4,153.1,81.5,316.4c0,0,8.8,32.1-107.3,27.7c-116.1-4.4-122.8-20.4-122.8-20.4c36.8-87.6,65.3-186.8,79.5-306.2
			C3496.8,1519.9,3540.2,1521.5,3565.9,1502.5z"/>
		
			<linearGradient id="SVGID_00000182512129133145562450000010786273579863513262_" gradientUnits="userSpaceOnUse" x1="3538.3232" y1="1711.9181" x2="3648.6003" y2="1693.5385">
			<stop  offset="0" style="stop-color:#FFC1C2"/>
			<stop  offset="1" style="stop-color:#FE958F"/>
		</linearGradient>
		<path style="fill:url(#SVGID_00000182512129133145562450000010786273579863513262_);" d="M3577,1853.4l89.5,11.1
			c0,0-3.5-101.8-16.8-160c-16.7-73.2-47.8-182.3-103.9-167.5c-73.4,19.4,33.1,166.4,40.7,206.7
			C3592.7,1776.2,3577,1853.4,3577,1853.4z"/>
		<path class="st54" d="M3650.7,2016c9.6-2.4,16.5-25.4,12.2-54.4c-4-26.7-18.3-42.2-28.1-40.6
			C3612.8,1924.8,3635.9,2019.7,3650.7,2016z"/>
		<path class="st54" d="M3622.3,1979.2c-4.3-0.6-8.2-11.8-7.4-26.8c0.7-13.8,6.4-22.5,10.8-22.3
			C3635.4,1930.7,3628.9,1980.2,3622.3,1979.2z"/>
		<path class="st28" d="M3305.8,2437l16.9-3v0l61.8-23.9v0.5c0,0,0.7,10.6,13.6,12.6c9.5,1.5,15.6-1.1,18.2-2.5
			c0.6-0.6,1.1-0.9,1.4-0.9c4.1,0,7.5,6.8,7.5,15.1c0,2.7-0.4,5.3-1,7.5v11.6h-123.1v-11.7C3301.1,2439.5,3303.1,2437.2,3305.8,2437
			z"/>
		<path class="st28" d="M3683.6,2435.5l10.5-13.6l0,0l29.6-59.3l0.3,0.4c0,0,7.7,7.3,18.5,0.2c8-5.3,10.8-11.3,11.8-14.1
			c0.1-0.8,0.2-1.4,0.4-1.6c3.1-2.8,10.1,0,15.7,6.1c1.8,2,3.3,4.2,4.3,6.2l7.8,8.6l-91,82.9l-7.9-8.7
			C3681.7,2440.5,3681.7,2437.5,3683.6,2435.5z"/>
		<path class="st51" d="M3533.5,1303c12.4,0,20.9,1.1,31.5,6.6c17,8.8,39.4,29.9,43.9,77.6c4.2,44.5-13.7,66.3,24.3,108.2
			c42.8,32.5,119,26.9,110.2,99.8c-8.8,72.8-105.4,63.3-128.4,26.9c-23-36.4-20.4-68.9-33.2-91.9c-12.8-23-34.9-9.5-46-34.8
			c-13-23.8,9.6-77.3,13.6-86.5c-2.7-9-6.2-18.8-20.8-22.8c-31.2-8.5-57-38-57-47.5S3500.2,1303,3533.5,1303z"/>
		<path class="st54" d="M3534.5,1393.1c-3.2,7.2-1,15.2,5,17.9c6,2.7,13.4-1,16.7-8.1c3.2-7.2,1-15.2-5-17.9
			C3545.2,1382.3,3537.7,1385.9,3534.5,1393.1z"/>
	</g>
	<g>
		<g>
			<polygon class="st42" points="1463.5,510.6 1407.8,495.3 1437.1,388.7 1471.1,398.1 			"/>
			<path class="st54" d="M1548.7,361.4c-2.6,46.3-21.7,88.5-50.7,90.8c-27.2,2.2-63.7-33.4-71.4-82c-8.2-51.2,11.3-82.4,51.4-85
				C1520.6,282.5,1551.6,310.7,1548.7,361.4z"/>
			<path class="st51" d="M1473.7,359.8c9-16.9,26.7-21.3,40.1-22.8c13.4-1.5,35.2,4.5,37.9-5.2c2.7-9.7-2.8-45.6-57.8-55
				c-49.8-8.5-80.9,19.4-93.3,55.1c-10.9,31.2,7.4,67,32.3,62.2C1457.8,389.2,1462.9,380.2,1473.7,359.8z"/>
			<path class="st54" d="M1471.1,374.7c1.2,8.2-3.4,15.7-10.3,16.7c-6.9,1-13.4-4.9-14.6-13.1c-1.2-8.2,3.4-15.7,10.3-16.7
				C1463.4,360.6,1469.9,366.4,1471.1,374.7z"/>
			<path class="st51" d="M1491.7,229.4c8.2,21.2-3.3,54.8-29.6,65s-57.5-6.7-65.8-28c-8.2-21.2,11.1-34.6,37.5-44.8
				C1460.2,211.4,1483.5,208.2,1491.7,229.4z"/>
			<path class="st42" d="M1730.4,766.8c-0.5,10.1-16.2,21.8-37.8,23.3c-19.9,1.5-33-9.8-33.1-20.1
				C1659.3,747.2,1731.2,751.2,1730.4,766.8z"/>
			<path class="st42" d="M1753.6,878.7l-4-0.7l-287-53.1l-50.5-9.3l-12.6,108.7l51.3,2.4l249,11.8L1599,1180.6l-4.8,11.5l21,10.3
				l6.2-10.9l152.8-268.5c1.6-2.8,2.8-6,3.4-9.4C1780.6,897.4,1769.9,881.8,1753.6,878.7z"/>
			<path class="st42" d="M1781.4,893.8l-3.6-0.7l-318.4-58.6l-50.5-9.3l-13.1,108l51.2,3.1l297.1,17.8l16.3,306.7l0.7,12.5l23.5,0.1
				l0.7-12.5l20.1-336.4C1806.3,909.8,1796.2,896.5,1781.4,893.8z"/>
			
				<linearGradient id="SVGID_00000114788325778034407130000005025114204750519966_" gradientUnits="userSpaceOnUse" x1="1785.9009" y1="799.7455" x2="1706.6163" y2="850.1993">
				<stop  offset="0" style="stop-color:#FE958F"/>
				<stop  offset="1" style="stop-color:#F77C77"/>
			</linearGradient>
			<path style="fill:url(#SVGID_00000114788325778034407130000005025114204750519966_);" d="M1500.3,799.6
				c36.4,58.7,252.7,38.4,283.9,81.4c41.6,57.5-129.3,279.5-129.3,279.5l-56.9-31.8c0,0,87.1-157.1,83.6-168.3
				c-4.5-14.3-241.9,19.6-306.1-34.6c-49.9-42.1-25.2-126.2-25.2-126.2L1500.3,799.6z"/>
			
				<linearGradient id="SVGID_00000160157658741745941700000003124162472268436113_" gradientUnits="userSpaceOnUse" x1="1797.334" y1="878.5156" x2="1472.9879" y2="1070.9612">
				<stop  offset="0" style="stop-color:#FFC1C2"/>
				<stop  offset="0.2503" style="stop-color:#FCA7A5"/>
				<stop  offset="0.5359" style="stop-color:#F98F8C"/>
				<stop  offset="0.7944" style="stop-color:#F8817C"/>
				<stop  offset="1" style="stop-color:#F77C77"/>
			</linearGradient>
			<path style="fill:url(#SVGID_00000160157658741745941700000003124162472268436113_);" d="M1483.3,799.6
				c31.7,72.1,289.8,45.4,326.4,108.3c29.5,50.7-0.8,308-0.8,308l-68.3-1.9c0,0,0.4-219.1-13-234c-9.8-10.9-283.8,14.3-352.2-34.6
				c-58.5-41.9-25.2-145.9-25.2-145.9L1483.3,799.6z"/>
			<path class="st42" d="M1471.2,533.9l38.8,221.1l-18.4-15.8l161.9,12l14.7,1.1l-1.2,28.6l-14.7-0.2l-162.4-2.1
				c-8.9-0.1-16.4-6.4-18.2-14.8l-0.2-1l-48.7-219.2l-5.4-24.2l49.6-9.9L1471.2,533.9z"/>
			
				<linearGradient id="SVGID_00000171712359649771844510000013686232240311017881_" gradientUnits="userSpaceOnUse" x1="1630.5126" y1="665.0845" x2="1498.6118" y2="652.1106">
				<stop  offset="0" style="stop-color:#435AC2"/>
				<stop  offset="1" style="stop-color:#0F24A4"/>
			</linearGradient>
			<path style="fill:url(#SVGID_00000171712359649771844510000013686232240311017881_);" d="M1394.7,539.1
				c-3.8,52.9,30.4,190.4,84.4,237.7c32.1,28.1,138.8,9.2,138.8,9.2l5.2-41.7c0,0-79.9,12-98.1-34.4
				c-18.2-46.4-29.8-173.1-56.8-192.4C1444.5,500.5,1396.4,515.3,1394.7,539.1z"/>
			<path class="st63" d="M1420.5,490.1c0,0,29.4,27.5,60.3,10.8c0,0,6.8,111,18.8,156.5s48.1,165.5,48.1,165.5l-220.2-7.2
				C1324.9,714.6,1366.8,601.1,1420.5,490.1z"/>
			
				<linearGradient id="SVGID_00000133487599107026238420000006903910519625235588_" gradientUnits="userSpaceOnUse" x1="1552.0056" y1="680.4711" x2="1332.1711" y2="648.0366">
				<stop  offset="0" style="stop-color:#7A8FD8"/>
				<stop  offset="1" style="stop-color:#435AC2"/>
			</linearGradient>
			<path style="fill:url(#SVGID_00000133487599107026238420000006903910519625235588_);" d="M1410.3,480.7
				c0,0-110.4,153.9-94.4,322.5c0,0-10.1,32.7,109.4,32.1c119.5-0.6,126.9-16.9,126.9-16.9c-34.9-91.3-60.9-194.2-71.5-317.5
				C1480.8,501,1436.1,501.1,1410.3,480.7z"/>
			<path class="st54" d="M1445.8,568.4c-16.1,25.2-31.8,51.6-46.4,77.9c-7.3,13.2-14.2,26.6-20.7,40c-6.4,13.4-12.4,26.9-16.7,40.1
				c-1.1,3.3-2,6.5-2.8,9.7l-2.5,10.7c-1.5,7.3-3,14.6-4.4,22c-2.7,14.8-5.1,29.9-7.2,44.9c-4.3,30.2-8,60.7-11.1,91l-1.5,14.7
				l-28.6-2l0.7-14.7c1.4-31.1,3.3-61.9,6-92.9c1.4-15.5,2.9-31,4.8-46.6c0.9-7.8,2.1-15.7,3.3-23.5l2.1-11.9
				c0.9-4.3,1.9-8.6,3-12.7c4.5-16.3,10.3-31.3,16.4-46c6.1-14.7,12.7-29,19.6-43.2c13.8-28.3,28.2-55.7,43.9-83.2l12.2-21.5
				l43.3,26.5L1445.8,568.4z"/>
			
				<linearGradient id="SVGID_00000126311060944586077440000004128498829586303875_" gradientUnits="userSpaceOnUse" x1="1394.072" y1="706.8317" x2="1311.1835" y2="678.0009">
				<stop  offset="0" style="stop-color:#435AC2"/>
				<stop  offset="1" style="stop-color:#0F24A4"/>
			</linearGradient>
			<path style="fill:url(#SVGID_00000126311060944586077440000004128498829586303875_);" d="M1396.1,515.8
				c-39.6,35.4-65.1,118.5-84.3,187.6S1301,879.3,1301,879.3l43.4,3.8c0,0,7.2-107.8,26.4-153.9c19.2-46,99-145.1,93.1-177.7
				C1458.7,522.7,1413.9,499.9,1396.1,515.8z"/>
			<path class="st54" d="M1303.2,1004.5c-9.8-2.4-17.1-26-12.8-55.8c3.9-27.5,18.6-43.5,28.7-41.9
				C1341.7,910.5,1318.5,1008.3,1303.2,1004.5z"/>
			<path class="st54" d="M1332.3,966.6c4.4-0.7,8.4-12.2,7.5-27.6c-0.8-14.1-6.7-23.1-11.2-22.8
				C1318.5,916.7,1325.5,967.6,1332.3,966.6z"/>
			<path class="st51" d="M1875.1,1286.1l-17.9-3.2v0l-65.3-25.3v0.5c0,0-0.8,11.2-14.4,13.3c-10,1.6-16.5-1.1-19.2-2.6
				c-0.6-0.6-1.2-0.9-1.5-0.9c-4.4,0-7.9,7.1-7.9,15.9c0,2.9,0.4,5.6,1.1,7.9v12.2h130.1v-12.4
				C1880.1,1288.7,1878,1286.3,1875.1,1286.1z"/>
			<path class="st51" d="M1674.3,1268.7l-12.1-13.5l0,0l-35.9-60.1l-0.3,0.4c0,0-7.5,8.3-19.5,1.6c-8.8-4.9-12.3-11-13.5-13.9
				c-0.1-0.9-0.4-1.5-0.6-1.6c-3.4-2.7-10.6,0.8-16,7.7c-1.8,2.3-3.1,4.6-4.1,6.9l-7.5,9.6l102.6,80.1l7.6-9.8
				C1676.6,1273.9,1676.4,1270.6,1674.3,1268.7z"/>
			<path class="st42" d="M1712.3,748.7c-1.3-4.3-13.3-6.6-28.3-3.7c-13.9,2.7-22,9.8-21.1,14.2
				C1664.9,769.2,1714.3,755.3,1712.3,748.7z"/>
		</g>
		<g>
			
				<linearGradient id="SVGID_00000113330246512628698970000017735533504204203159_" gradientUnits="userSpaceOnUse" x1="1653.7986" y1="696.8405" x2="1839.4031" y2="696.8405">
				<stop  offset="0" style="stop-color:#435AC2"/>
				<stop  offset="1" style="stop-color:#0F24A4"/>
			</linearGradient>
			<path style="fill:url(#SVGID_00000113330246512628698970000017735533504204203159_);" d="M1832.4,622.1L1832.4,622.1
				c-5.3-1.7-10.9,1.3-12.5,6.5l-39.1,123.5h-117.1c-5.5,0-10,4.5-10,10c0,5.5,4.5,10,10,10h124.6c5,0,9.2-3.7,9.9-8.6l40.7-128.9
				C1840.6,629.3,1837.7,623.7,1832.4,622.1z"/>
			<polygon class="st28" points="1780.9,752.1 1787.1,752.1 1825,630.6 1819.3,630.6 			"/>
		</g>
	</g>
</g>
</svg>
